<?xml version="1.0" standalone="no"?>
<!DOCTYPE svg PUBLIC "-//W3C//DTD SVG 20010904//EN"
 "http://www.w3.org/TR/2001/REC-SVG-20010904/DTD/svg10.dtd">
<svg version="1.0" xmlns="http://www.w3.org/2000/svg"
 width="1280.000000pt" height="1215.000000pt" viewBox="0 0 1280.000000 1215.000000"
 preserveAspectRatio="xMidYMid meet">
<metadata>
Created by potrace 1.15, written by Peter Selinger 2001-2017
</metadata>
<g transform="translate(0.000000,1215.000000) scale(0.100000,-0.100000)"
fill="#000000" stroke="none">
<path d="M5805 12144 c-969 -58 -1693 -267 -2570 -741 -217 -118 -601 -380
-855 -584 -521 -418 -1034 -973 -1391 -1506 -249 -370 -461 -715 -553 -900
-100 -200 -106 -224 -107 -413 0 -183 12 -250 76 -450 88 -274 105 -398 105
-780 0 -410 -19 -658 -81 -1080 -57 -382 -92 -520 -249 -965 -117 -332 -140
-426 -170 -695 l-10 -95 80 -235 c103 -299 196 -547 272 -725 337 -790 704
-1261 1033 -1326 28 -6 261 -14 520 -19 503 -9 638 -19 781 -55 149 -38 302
-130 363 -219 69 -100 86 -272 107 -1094 l7 -263 406 3 c439 3 450 5 470 57 5
14 15 59 21 99 8 50 19 82 35 100 23 27 23 27 45 7 29 -26 48 -73 60 -153 6
-37 13 -77 16 -89 l4 -23 420 0 420 0 0 53 c0 120 34 231 74 247 51 19 88 -45
107 -185 6 -50 13 -96 15 -102 3 -10 113 -13 508 -13 l504 0 12 67 c15 87 39
156 77 216 l30 49 32 -52 c38 -62 61 -145 61 -222 l0 -58 532 2 532 3 12 97
c19 148 58 218 110 198 40 -16 74 -127 74 -247 l0 -53 420 0 420 0 4 23 c3 12
10 52 16 89 12 80 31 127 60 153 22 20 22 20 45 -7 16 -18 27 -50 35 -100 6
-40 16 -85 21 -99 20 -52 31 -54 470 -57 l406 -3 7 263 c10 403 25 732 37 848
20 189 51 252 163 336 125 95 260 141 471 164 61 6 322 15 580 20 259 5 493
13 520 19 333 66 702 545 1043 1351 82 196 156 392 263 705 l79 230 -10 95
c-30 269 -53 363 -170 695 -158 448 -189 566 -244 938 -67 443 -86 687 -86
1107 0 380 17 506 103 775 66 206 78 272 78 454 -1 190 -7 214 -107 414 -92
184 -304 530 -551 897 -357 533 -873 1092 -1390 1507 -264 212 -641 468 -873
594 -778 421 -1467 635 -2300 715 -126 12 -310 17 -775 19 -335 1 -637 1 -670
-1z m-3083 -5104 c186 -27 369 -132 818 -469 681 -512 1158 -941 1540 -1386
198 -231 334 -427 477 -686 92 -166 113 -219 113 -290 0 -63 -11 -84 -51 -98
-44 -15 -244 -14 -494 4 -509 35 -1210 42 -1470 14 -49 -5 -160 -24 -245 -41
-141 -29 -172 -32 -350 -32 -222 -1 -271 8 -405 73 -162 80 -276 220 -396 488
-231 514 -597 1419 -654 1617 -29 99 -4 201 69 290 67 82 270 209 641 402 250
129 267 134 407 114z m7718 -91 c373 -190 617 -341 686 -425 73 -89 98 -191
69 -290 -57 -198 -423 -1103 -654 -1617 -120 -268 -234 -408 -396 -488 -134
-65 -183 -74 -405 -73 -177 0 -209 3 -350 32 -85 17 -193 36 -240 41 -243 28
-962 21 -1475 -14 -274 -19 -455 -20 -500 -1 -41 18 -50 44 -42 127 6 66 30
120 158 344 341 600 978 1241 1974 1990 515 386 702 482 925 470 59 -3 81 -11
250 -96z m-3916 -3517 c153 -82 388 -395 743 -986 207 -345 261 -463 246 -538
-8 -40 -85 -105 -146 -123 -117 -35 -744 -28 -815 9 -34 18 -65 63 -82 121 -7
24 -15 168 -20 357 -6 192 -13 325 -20 338 -14 26 -46 26 -60 -1 -7 -13 -15
-141 -20 -337 -5 -190 -13 -333 -20 -357 -17 -58 -48 -103 -82 -121 -71 -37
-698 -44 -815 -9 -61 18 -138 83 -146 122 -15 77 47 212 263 568 405 671 620
936 802 990 51 15 101 5 172 -33z"/>
</g>
</svg>
